<svg data-v-6805eed4="" version="1.0" xmlns="http://www.w3.org/2000/svg" xmlns:xlink="http://www.w3.org/1999/xlink" width="100%" height="100%" viewBox="0 0 340.000000 250.000000" preserveAspectRatio="xMidYMid meet" color-interpolation-filters="sRGB" style="margin: auto;"> <rect data-v-6805eed4="" x="0" y="0" width="100%" height="100%" fill="#ffffff" fill-opacity="0" class="background"></rect> <rect data-v-6805eed4="" x="0" y="0" width="100%" height="100%" fill="url(#watermark)" fill-opacity="1" class="watermarklayer"></rect> <g data-v-6805eed4="" fill="#00B0F0" class="basesvg" transform="translate(128.6599998474121,95.26000022888184)"><g data-gra="path-name" fill-rule="" class="tp-name" opacity="1" transform="matrix(1,0,0,1,0,0)"><g transform="scale(1)"><g><path d="M11.83 2.47L9.1 7.02Q8.97 6.96 7.96 6.27 6.96 5.59 5.79 4.29 4.62 2.99 3.67 1.14 2.73-0.72 2.73-3.06L2.73-3.06 2.73-32.76 1.04-32.76 1.04-38.09 8.13-38.09 8.13-3.06Q8.13-1.82 8.71-0.81 9.29 0.2 9.98 0.91 10.66 1.63 11.25 2.05 11.83 2.47 11.83 2.47L11.83 2.47ZM43.16-17.55L23.79 21.39 19.3 21.39 19.3 16.25 20.67 16.25 26.65 4.23 16.51-17.55 15.28-17.55 15.28-22.69 19.82-22.69 29.51-1.63 39.98-22.69 44.52-22.69 44.52-17.55 43.16-17.55ZM82.42-17.68L78.19 5.79 72.8 5.79 65.78-9.81 58.82 5.79 53.49 5.79 49.2-17.68 47.9-17.68 47.9-22.82 53.49-22.82 57.07-2.79 63.89-18.07 67.73-18.07 74.55-2.79 78.19-22.82 83.72-22.82 83.72-17.68 82.42-17.68Z" transform="translate(-1.0399999618530273, 38.09000015258789)"></path></g> <!----> <!----> <!----> <!----> <!----> <!----> <!----></g></g> <!----></g><defs v-gra="od"></defs></svg>